<?xml version="1.0" encoding="UTF-8" standalone="no"?>
<!DOCTYPE svg PUBLIC "-//W3C//DTD SVG 1.1//EN"
 "http://www.w3.org/Graphics/SVG/1.1/DTD/svg11.dtd">
<!-- Generated by graphviz version 2.38.0 (20140413.2041)
 -->
<!-- Title: G Pages: 1 -->
<svg width="267pt" height="132pt"
 viewBox="0.00 0.00 267.39 132.00" xmlns="http://www.w3.org/2000/svg" xmlns:xlink="http://www.w3.org/1999/xlink">
<g id="graph0" class="graph" transform="scale(1 1) rotate(0) translate(4 128)">
<title>G</title>
<polygon fill="white" stroke="none" points="-4,4 -4,-128 263.393,-128 263.393,4 -4,4"/>
<g id="clust1" class="cluster"><title>cluster_Global</title>
<path fill="none" stroke="gray" d="M20,-8C20,-8 239.393,-8 239.393,-8 245.393,-8 251.393,-14 251.393,-20 251.393,-20 251.393,-104 251.393,-104 251.393,-110 245.393,-116 239.393,-116 239.393,-116 20,-116 20,-116 14,-116 8,-110 8,-104 8,-104 8,-20 8,-20 8,-14 14,-8 20,-8"/>
<text text-anchor="middle" x="129.697" y="-103.2" font-family="Times,serif" font-size="11.00" fill="gray">Global</text>
</g>
<g id="clust2" class="cluster"><title>cluster_\App</title>
<path fill="none" stroke="gray" d="M175.393,-16C175.393,-16 231.393,-16 231.393,-16 237.393,-16 243.393,-22 243.393,-28 243.393,-28 243.393,-76 243.393,-76 243.393,-82 237.393,-88 231.393,-88 231.393,-88 175.393,-88 175.393,-88 169.393,-88 163.393,-82 163.393,-76 163.393,-76 163.393,-28 163.393,-28 163.393,-22 169.393,-16 175.393,-16"/>
<text text-anchor="middle" x="203.393" y="-75.2" font-family="Times,serif" font-size="11.00" fill="gray">App</text>
</g>
<g id="clust3" class="cluster"><title>cluster_Global\App</title>
<path fill="none" stroke="gray" d="M28,-16C28,-16 95.3933,-16 95.3933,-16 101.393,-16 107.393,-22 107.393,-28 107.393,-28 107.393,-76 107.393,-76 107.393,-82 101.393,-88 95.3933,-88 95.3933,-88 28,-88 28,-88 22,-88 16,-82 16,-76 16,-76 16,-28 16,-28 16,-22 22,-16 28,-16"/>
<text text-anchor="middle" x="61.6967" y="-75.2" font-family="Times,serif" font-size="11.00" fill="gray">App</text>
</g>
<!-- \\App\\Example -->
<g id="node1" class="node"><title>\\App\\Example</title>
<polygon fill="none" stroke="black" points="235.393,-60 171.393,-60 171.393,-24 235.393,-24 235.393,-60"/>
<text text-anchor="middle" x="203.393" y="-39.2" font-family="Courier,monospace" font-size="11.00">Example</text>
</g>
<!-- PEAR -->
<g id="node2" class="node"><title>PEAR</title>
<ellipse fill="none" stroke="black" cx="61.6967" cy="-42" rx="37.8943" ry="18"/>
<text text-anchor="middle" x="61.6967" y="-38.3" font-family="Times,serif" font-size="14.00" fill="gray">PEAR</text>
</g>
<!-- \\App\\Example&#45;&gt;PEAR -->
<g id="edge1" class="edge"><title>\\App\\Example&#45;&gt;PEAR</title>
<path fill="none" stroke="black" d="M171.39,-42C153.236,-42 129.949,-42 109.59,-42"/>
<polygon fill="none" stroke="black" points="109.56,-38.5001 99.5602,-42 109.56,-45.5001 109.56,-38.5001"/>
</g>
</g>
</svg>
